<svg xmlns="http://www.w3.org/2000/svg" xmlns:xlink="http://www.w3.org/1999/xlink" width="500" zoomAndPan="magnify" viewBox="0 0 375 374.999991" height="500" preserveAspectRatio="xMidYMid meet" version="1.0"><defs><g/><clipPath id="0dc77f3dc8"><path d="M 32.003906 94.660156 L 157.542969 94.660156 L 157.542969 246.398438 L 32.003906 246.398438 Z M 32.003906 94.660156 " clip-rule="nonzero"/></clipPath></defs><path fill="#00bf63" d="M 64.109375 219.078125 L 43.105469 219.078125 L 74.027344 150.234375 C 77.675781 157.964844 81.320312 166.132812 85.261719 174.300781 L 64.109375 219.078125 " fill-opacity="1" fill-rule="nonzero"/><g clip-path="url(#0dc77f3dc8)"><path fill="#00bf63" d="M 32.019531 94.660156 C 87.011719 107.933594 82.636719 218.933594 157.460938 246.5 C 104.515625 220.539062 109.621094 103.847656 32.019531 94.660156 " fill-opacity="1" fill-rule="evenodd"/></g><g fill="#ffffff" fill-opacity="1"><g transform="translate(142.071623, 218.021899)"><g><path d="M 53.28125 0 L 41.609375 0 L 36.984375 -12.0625 L 15.75 -12.0625 L 11.375 0 L 0 0 L 20.6875 -53.09375 L 32.015625 -53.09375 Z M 33.53125 -21 L 26.21875 -40.703125 L 19.046875 -21 Z M 33.53125 -21 "/></g></g></g><g fill="#ffffff" fill-opacity="1"><g transform="translate(194.888339, 218.021899)"><g><path d="M 1.734375 -10.96875 L 11.953125 -12.53125 C 12.390625 -10.550781 13.269531 -9.046875 14.59375 -8.015625 C 15.925781 -6.992188 17.785156 -6.484375 20.171875 -6.484375 C 22.804688 -6.484375 24.785156 -6.96875 26.109375 -7.9375 C 27.003906 -8.613281 27.453125 -9.515625 27.453125 -10.640625 C 27.453125 -11.421875 27.210938 -12.0625 26.734375 -12.5625 C 26.222656 -13.050781 25.085938 -13.5 23.328125 -13.90625 C 15.117188 -15.71875 9.914062 -17.375 7.71875 -18.875 C 4.675781 -20.945312 3.15625 -23.832031 3.15625 -27.53125 C 3.15625 -30.851562 4.46875 -33.648438 7.09375 -35.921875 C 9.726562 -38.191406 13.8125 -39.328125 19.34375 -39.328125 C 24.601562 -39.328125 28.507812 -38.46875 31.0625 -36.75 C 33.625 -35.039062 35.390625 -32.507812 36.359375 -29.15625 L 26.765625 -27.375 C 26.359375 -28.875 25.578125 -30.019531 24.421875 -30.8125 C 23.273438 -31.613281 21.640625 -32.015625 19.515625 -32.015625 C 16.835938 -32.015625 14.921875 -31.640625 13.765625 -30.890625 C 12.992188 -30.359375 12.609375 -29.671875 12.609375 -28.828125 C 12.609375 -28.097656 12.945312 -27.484375 13.625 -26.984375 C 14.539062 -26.304688 17.707031 -25.347656 23.125 -24.109375 C 28.539062 -22.878906 32.328125 -21.375 34.484375 -19.59375 C 36.609375 -17.78125 37.671875 -15.257812 37.671875 -12.03125 C 37.671875 -8.5 36.195312 -5.460938 33.25 -2.921875 C 30.300781 -0.390625 25.941406 0.875 20.171875 0.875 C 14.929688 0.875 10.785156 -0.1875 7.734375 -2.3125 C 4.679688 -4.4375 2.679688 -7.320312 1.734375 -10.96875 Z M 1.734375 -10.96875 "/></g></g></g><g fill="#ffffff" fill-opacity="1"><g transform="translate(235.392774, 218.021899)"><g><path d="M 12.921875 -26.734375 L 3.6875 -28.390625 C 4.726562 -32.109375 6.515625 -34.859375 9.046875 -36.640625 C 11.585938 -38.429688 15.359375 -39.328125 20.359375 -39.328125 C 24.890625 -39.328125 28.265625 -38.789062 30.484375 -37.71875 C 32.710938 -36.644531 34.28125 -35.28125 35.1875 -33.625 C 36.09375 -31.96875 36.546875 -28.929688 36.546875 -24.515625 L 36.4375 -12.640625 C 36.4375 -9.253906 36.597656 -6.757812 36.921875 -5.15625 C 37.242188 -3.550781 37.851562 -1.832031 38.75 0 L 28.6875 0 C 28.414062 -0.675781 28.085938 -1.675781 27.703125 -3 C 27.535156 -3.601562 27.414062 -4.003906 27.34375 -4.203125 C 25.601562 -2.515625 23.742188 -1.242188 21.765625 -0.390625 C 19.785156 0.453125 17.671875 0.875 15.421875 0.875 C 11.460938 0.875 8.34375 -0.195312 6.0625 -2.34375 C 3.78125 -4.5 2.640625 -7.21875 2.640625 -10.5 C 2.640625 -12.675781 3.160156 -14.613281 4.203125 -16.3125 C 5.242188 -18.019531 6.695312 -19.320312 8.5625 -20.21875 C 10.4375 -21.125 13.132812 -21.914062 16.65625 -22.59375 C 21.414062 -23.488281 24.710938 -24.320312 26.546875 -25.09375 L 26.546875 -26.109375 C 26.546875 -28.066406 26.0625 -29.460938 25.09375 -30.296875 C 24.132812 -31.128906 22.3125 -31.546875 19.625 -31.546875 C 17.8125 -31.546875 16.398438 -31.1875 15.390625 -30.46875 C 14.378906 -29.757812 13.554688 -28.515625 12.921875 -26.734375 Z M 26.546875 -18.46875 C 25.242188 -18.03125 23.175781 -17.507812 20.34375 -16.90625 C 17.519531 -16.300781 15.675781 -15.710938 14.8125 -15.140625 C 13.488281 -14.191406 12.828125 -12.992188 12.828125 -11.546875 C 12.828125 -10.128906 13.351562 -8.898438 14.40625 -7.859375 C 15.46875 -6.816406 16.820312 -6.296875 18.46875 -6.296875 C 20.300781 -6.296875 22.050781 -6.898438 23.71875 -8.109375 C 24.945312 -9.023438 25.757812 -10.148438 26.15625 -11.484375 C 26.414062 -12.347656 26.546875 -14 26.546875 -16.4375 Z M 26.546875 -18.46875 "/></g></g></g><g fill="#ffffff" fill-opacity="1"><g transform="translate(275.897208, 218.021899)"><g><path d="M 40.59375 0 L 31.140625 0 L 31.140625 -5.65625 C 29.578125 -3.457031 27.722656 -1.816406 25.578125 -0.734375 C 23.441406 0.335938 21.289062 0.875 19.125 0.875 C 14.707031 0.875 10.921875 -0.90625 7.765625 -4.46875 C 4.617188 -8.03125 3.046875 -13 3.046875 -19.375 C 3.046875 -25.894531 4.578125 -30.847656 7.640625 -34.234375 C 10.703125 -37.628906 14.578125 -39.328125 19.265625 -39.328125 C 23.566406 -39.328125 27.285156 -37.539062 30.421875 -33.96875 L 30.421875 -53.09375 L 40.59375 -53.09375 Z M 13.4375 -20.0625 C 13.4375 -15.957031 14.003906 -12.988281 15.140625 -11.15625 C 16.773438 -8.5 19.066406 -7.171875 22.015625 -7.171875 C 24.359375 -7.171875 26.347656 -8.164062 27.984375 -10.15625 C 29.628906 -12.144531 30.453125 -15.125 30.453125 -19.09375 C 30.453125 -23.507812 29.65625 -26.6875 28.0625 -28.625 C 26.46875 -30.570312 24.429688 -31.546875 21.953125 -31.546875 C 19.535156 -31.546875 17.507812 -30.582031 15.875 -28.65625 C 14.25 -26.738281 13.4375 -23.875 13.4375 -20.0625 Z M 13.4375 -20.0625 "/></g></g></g><g fill="#ffffff" fill-opacity="1"><g transform="translate(320.469719, 218.021899)"><g/></g></g></svg>