<?xml version="1.0" encoding="utf-8"?>
<!-- Generator: Adobe Illustrator 24.3.0, SVG Export Plug-In . SVG Version: 6.00 Build 0)  -->
<svg version="1.1" id="Layer_1" xmlns="http://www.w3.org/2000/svg" xmlns:xlink="http://www.w3.org/1999/xlink" x="0px" y="0px"
	 viewBox="0 0 500 500" style="enable-background:new 0 0 500 500;" xml:space="preserve">
<style type="text/css">
	.st0{fill:#FFFFFF;}
	.st1{fill:#00BF63;}
	.st2{clip-path:url(#SVGID_2_);}
	.st3{fill-rule:evenodd;clip-rule:evenodd;fill:#00BF63;}
</style>
<rect x="-50" y="-50" class="st0" width="600" height="600"/>
<rect x="-50" y="-51.4" width="600" height="600"/>
<path class="st1" d="M85.5,292.1h-28l41.2-91.8c4.9,10.3,9.7,21.2,15,32.1L85.5,292.1"/>
<g>
	<defs>
		<rect id="SVGID_1_" x="42.7" y="126.2" width="167.4" height="202.3"/>
	</defs>
	<clipPath id="SVGID_2_">
		<use xlink:href="#SVGID_1_"  style="overflow:visible;"/>
	</clipPath>
	<g class="st2">
		<path class="st3" d="M42.7,126.2c73.3,17.7,67.5,165.7,167.3,202.5C139.4,294.1,146.2,138.5,42.7,126.2"/>
	</g>
</g>
<g>
	<g transform="translate(142.071623, 218.021899)">
		<g>
			<path class="st0" d="M118.4,72.7h-15.6l-6.2-16.1H68.4l-5.8,16.1H47.4L74.9,1.9H90L118.4,72.7z M92.1,44.7l-9.8-26.3l-9.6,26.3
				H92.1z"/>
		</g>
	</g>
</g>
<g>
	<g transform="translate(194.888339, 218.021899)">
		<g>
			<path class="st0" d="M67.3,58L80.9,56c0.6,2.6,1.8,4.6,3.5,6c1.8,1.4,4.3,2,7.4,2c3.5,0,6.2-0.6,7.9-1.9c1.2-0.9,1.8-2.1,1.8-3.6
				c0-1-0.3-1.9-1-2.6c-0.7-0.7-2.2-1.2-4.5-1.8c-10.9-2.4-17.9-4.6-20.8-6.6c-4.1-2.8-6.1-6.6-6.1-11.5c0-4.4,1.8-8.2,5.2-11.2
				c3.5-3,9-4.5,16.3-4.5c7,0,12.2,1.1,15.6,3.4c3.4,2.3,5.8,5.7,7.1,10.1l-12.8,2.4c-0.5-2-1.6-3.5-3.1-4.6C96,30.5,93.8,30,91,30
				c-3.6,0-6.1,0.5-7.7,1.5c-1,0.7-1.5,1.6-1.5,2.8c0,1,0.4,1.8,1.4,2.5c1.2,0.9,5.4,2.2,12.7,3.8c7.2,1.6,12.3,3.6,15.1,6
				c2.8,2.4,4.2,5.8,4.2,10.1c0,4.7-2,8.8-5.9,12.1c-3.9,3.4-9.7,5.1-17.4,5.1c-7,0-12.5-1.4-16.6-4.2C71.2,66.8,68.5,62.9,67.3,58z
				"/>
		</g>
	</g>
</g>
<g>
	<g transform="translate(235.392774, 218.021899)">
		<g>
			<path class="st0" d="M95.7,37l-12.3-2.2c1.4-5,3.8-8.6,7.1-11c3.4-2.4,8.4-3.6,15.1-3.6c6,0,10.5,0.7,13.5,2.1
				c3,1.4,5.1,3.2,6.3,5.5s1.8,6.3,1.8,12.1L127,55.8c0,4.5,0.2,7.8,0.6,10c0.4,2.1,1.2,4.4,2.4,6.9h-13.4c-0.4-0.9-0.8-2.2-1.3-4
				c-0.2-0.8-0.4-1.3-0.5-1.6c-2.3,2.2-4.8,3.9-7.4,5.1c-2.6,1.1-5.5,1.7-8.5,1.7c-5.3,0-9.4-1.4-12.5-4.3c-3-2.9-4.6-6.5-4.6-10.9
				c0-2.9,0.7-5.5,2.1-7.8c1.4-2.3,3.3-4,5.8-5.2c2.5-1.2,6.1-2.3,10.8-3.2c6.3-1.2,10.7-2.3,13.2-3.3v-1.4c0-2.6-0.6-4.5-1.9-5.6
				c-1.3-1.1-3.7-1.7-7.3-1.7c-2.4,0-4.3,0.5-5.6,1.4C97.6,33,96.5,34.7,95.7,37z M113.9,48c-1.7,0.6-4.5,1.3-8.3,2.1
				c-3.8,0.8-6.2,1.6-7.4,2.4c-1.8,1.3-2.6,2.9-2.6,4.8c0,1.9,0.7,3.5,2.1,4.9c1.4,1.4,3.2,2.1,5.4,2.1c2.4,0,4.8-0.8,7-2.4
				c1.6-1.2,2.7-2.7,3.2-4.5c0.3-1.2,0.5-3.4,0.5-6.6V48z"/>
		</g>
	</g>
</g>
<g>
	<g transform="translate(275.897208, 218.021899)">
		<g>
			<path class="st0" d="M146.1,72.7h-12.6v-7.5c-2.1,2.9-4.6,5.1-7.4,6.6c-2.8,1.4-5.7,2.1-8.6,2.1c-5.9,0-10.9-2.4-15.1-7.1
				C98.1,62,96,55.3,96,46.8c0-8.7,2-15.3,6.1-19.8c4.1-4.5,9.2-6.8,15.5-6.8c5.7,0,10.7,2.4,14.9,7.1V1.9h13.6V72.7z M109.9,45.9
				c0,5.5,0.8,9.4,2.3,11.9c2.2,3.5,5.2,5.3,9.2,5.3c3.1,0,5.8-1.3,8-4c2.2-2.7,3.3-6.6,3.3-11.9c0-5.9-1.1-10.1-3.2-12.7
				c-2.1-2.6-4.8-3.9-8.1-3.9c-3.2,0-5.9,1.3-8.1,3.9C111,37,109.9,40.8,109.9,45.9z"/>
		</g>
	</g>
</g>
<g>
	<g transform="translate(320.469719, 218.021899)">
	</g>
</g>
</svg>
